<?xml version="1.0" encoding="utf-8"?>
<!-- Generator: Adobe Illustrator 21.1.0, SVG Export Plug-In . SVG Version: 6.00 Build 0)  -->
<!DOCTYPE svg PUBLIC "-//W3C//DTD SVG 1.1//EN" "http://www.w3.org/Graphics/SVG/1.1/DTD/svg11.dtd">
<svg version="1.1" id="Layer_1" xmlns="http://www.w3.org/2000/svg" xmlns:xlink="http://www.w3.org/1999/xlink" x="0px" y="0px"
	 viewBox="0 0 69 50" style="enable-background:new 0 0 69 50;" xml:space="preserve">
<g>
	<path d="M19.4,43.6C19.4,43.6,19.4,43.6,19.4,43.6C19.4,43.6,19.3,43.6,19.4,43.6c-0.1-0.1-0.1-0.1-0.2-0.1c0,0,0,0,0,0
		c0,0-0.4,0.3-0.9,0.3c-0.8,0-1.5-0.5-1.5-1.4c0-0.7,0.4-1.5,1.5-1.5c0.4,0,0.8,0.2,0.8,0.2c0.1,0,0.1-0.1,0.1-0.1c0,0,0-0.1,0-0.1
		c0,0,0,0,0,0.1l0,0.6v0c0,0.1,0,0.1,0,0.1c0,0-0.2-0.8-0.9-0.8c-0.4,0-1,0.3-1,1.4c0,0.9,0.5,1.3,1,1.3c0.5,0,0.7-0.1,1-0.9
		c0,0,0,0,0,0c0,0,0,0,0,0V43.6z"/>
	<path d="M21.7,42.6h-1.1l-0.2,0.5c0,0.1-0.1,0.2-0.1,0.2c0,0.1,0,0.2,0.2,0.2c0.1,0,0.1,0,0.1,0.1c0,0,0,0-0.1,0h0
		c-0.1,0-0.3,0-0.4,0c0,0,0,0-0.1,0c-0.1,0-0.1,0-0.2,0c-0.1,0-0.1,0-0.1-0.1c0,0,0,0,0.1-0.1c0.1,0,0.2-0.1,0.3-0.2
		c0-0.1,0.1-0.1,0.1-0.2l0.9-2.2c0,0,0.1-0.1,0.1-0.1c0,0,0.1,0,0.1,0.1l0.9,2.4c0.1,0.2,0.2,0.3,0.4,0.4c0.1,0,0.1,0,0.1,0.1
		c0,0,0,0-0.1,0c-0.3,0-0.4,0-0.5,0c-0.2,0-0.5,0-0.5,0c-0.1,0-0.1,0-0.1,0c0,0,0,0,0,0c0,0,0,0,0.1,0c0.2,0,0.3-0.1,0.2-0.4
		L21.7,42.6z M21.2,41.3l-0.5,1.2h1L21.2,41.3z"/>
	<path d="M24.1,43.2c0,0.1,0,0.2,0,0.2c0,0,0,0.1,0.1,0.1c0,0,0.1,0,0.2,0.1c0.1,0,0.1,0,0.2,0c0,0,0,0,0,0c0,0,0,0-0.1,0
		c-0.1,0-0.3,0-0.5,0c-0.1,0-0.2,0-0.6,0h0c0,0,0,0,0,0c-0.1,0-0.1,0-0.1,0c0,0,0,0,0.1-0.1c0.3,0,0.4-0.1,0.4-0.4v-2.1
		c0-0.1,0-0.1-0.3-0.1c0,0,0,0-0.3,0c-0.5,0-0.6,0.1-0.6,0.4c0,0.1,0,0.2-0.1,0.2c0,0,0,0,0-0.1v-0.5c0-0.1,0-0.1,0.1-0.1h2.7
		c0,0,0.1,0,0.1,0.1v0.5c0,0,0,0.1,0,0.1c0,0,0,0,0,0c-0.1-0.4-0.1-0.5-0.7-0.5c-0.1,0-0.2,0-0.3,0c-0.1,0-0.2,0-0.2,0.1V43.2z"/>
	<path d="M27.4,41.7c0,0.1,0,0.4,0,0.4c0,0,0,0.4,0,0.5c0,0.1,0,0.1,0,0.1c0,0-0.1-0.1-0.1-0.1c-0.1-0.2-0.1-0.3-0.7-0.3v0.7
		c0,0.4,0,0.6,0.7,0.6c0.4,0,0.6-0.1,0.7-0.4c0,0,0-0.1,0.1-0.1c0,0,0,0,0,0c0,0,0,0.1,0,0.2c0,0.1,0,0.2,0,0.2c0,0.2,0,0.2-0.1,0.2
		c-0.1,0-0.7,0-1.1,0c-1,0-1,0-1,0c0,0-0.1,0-0.1,0c0,0,0,0,0,0c0,0,0.4,0.1,0.4-0.4v-1.9c0-0.2,0-0.3-0.3-0.4c0,0-0.1,0-0.1-0.1
		c0,0,0,0,0.1,0c0,0,0.1,0,0.3,0c0.5,0,1,0,1.2,0h0.1h0.1c0.2,0,0.3,0,0.3,0.1c0,0.1,0,0.2,0,0.2c0,0,0,0.1,0,0.2
		c0,0.1-0.1,0.1-0.1,0.1c0,0,0-0.1-0.1-0.1c0-0.1,0-0.1,0-0.1c0,0,0-0.1,0-0.1c-0.1-0.1-0.3-0.2-0.6-0.2c-0.5,0-0.5,0-0.5,0.2v1
		c0.3,0,0.6,0,0.7-0.4c0-0.1,0-0.2,0.1-0.2C27.4,41.6,27.4,41.6,27.4,41.7"/>
	<path d="M29.4,43.2c0,0.3,0,0.3,0.4,0.4c0,0,0,0,0,0c0,0,0,0-0.1,0c0.1,0-0.5,0-0.5,0c-0.1,0-0.4,0-0.6,0c0,0-0.1,0-0.1,0
		c0,0,0,0,0.1,0c0.2,0,0.3,0,0.3-0.4v-1.9c0-0.1,0-0.2-0.1-0.3c0-0.1-0.1-0.1-0.2-0.1c-0.1,0-0.2,0-0.2-0.1c0,0,0.1,0,0.2,0
		c0.1,0,0.2,0,0.4,0c0,0,0.2,0,0.3,0c0,0,0.1,0,0.2,0c0.1,0,0.2,0,0.2,0c0.7,0,1,0.2,1,0.7c0,0.4-0.2,0.6-0.8,0.7l0.9,1.1
		c0.1,0.1,0.2,0.2,0.3,0.2c0.1,0,0.1,0,0.1,0.1c0,0,0,0-0.1,0h0c-0.1,0-0.1,0-0.3,0c-0.2,0-0.2,0-0.2,0c-0.1,0-0.1,0-0.2-0.1
		l-0.9-1.1c0,0,0,0-0.1-0.1c0,0-0.1,0-0.1,0c-0.1,0-0.1,0-0.1,0.1V43.2z M29.4,42.2C29.4,42.2,29.4,42.2,29.4,42.2
		c0,0.1,0,0.1,0.2,0.1c0.7,0,0.8-0.3,0.8-0.7c0-0.4-0.2-0.7-0.7-0.7h-0.1c-0.1,0-0.1,0-0.1,0c0,0-0.1,0.1-0.1,0.1V42.2z"/>
	<path d="M32.8,40.8c0.1,0,0.2,0,0.2,0c0,0,0,0-0.1,0c-0.2,0-0.3,0.1-0.3,0.4v1.9c0,0.3,0.1,0.3,0.4,0.4c0,0,0,0,0,0c0,0,0,0-0.1,0
		c0,0-0.5,0-0.6,0c0,0-0.6,0-0.5,0c0,0-0.1,0-0.1,0c0,0,0-0.1,0.1-0.1c0.3,0,0.4-0.1,0.4-0.4v-1.9c0-0.3-0.1-0.3-0.3-0.4
		c-0.1,0-0.1,0-0.1,0c0,0,0,0,0.2,0c0.2,0,0.4,0,0.4,0C32.4,40.9,32.6,40.8,32.8,40.8"/>
	<path d="M36.1,40.8c0.2,0,0.3,0,0.4,0c0,0,0,0,0,0c0,0,0,0,0,0c-0.1,0-0.4,0-0.4,0.4v0.1v2.3c0,0.1,0,0.1-0.1,0.1
		c0,0-0.1,0-0.1-0.1L34,41.3v1.8c0,0.2,0,0.4,0.1,0.4c0,0,0.1,0,0.1,0c0.1,0,0.1,0,0.1,0.1c0,0,0,0.1-0.1,0.1c0,0-0.2,0-0.3,0
		c0,0-0.1,0-0.1,0c-0.1,0-0.1,0-0.2,0c-0.1,0-0.1,0-0.1,0c0,0,0,0,0,0c0,0,0,0,0,0c0,0,0.2,0,0.3-0.1c0,0,0.1-0.1,0.1-0.1
		c0,0,0-0.1,0-0.2v-0.1v-2c-0.1-0.1-0.2-0.2-0.3-0.2c-0.1,0-0.1,0-0.1-0.1c0,0,0,0,0.1,0c0.1,0,0.2,0,0.3,0c0,0,0,0,0.1,0
		c0.1,0,0.2,0,0.3,0.1l1.7,2.2v-1.7c0-0.3-0.1-0.4-0.3-0.4c-0.1,0-0.1-0.1-0.1-0.1c0,0,0,0,0.1,0H36.1z"/>
	<path d="M39.3,42.5c0.1,0,0.2,0,0.3,0c0,0,0.1,0,0.1,0c0,0,0,0-0.1,0.1c-0.1,0.1-0.2,0.1-0.2,0.4c0,0.1,0,0.2,0,0.4
		c-0.1,0-0.2,0-0.6,0.2c-0.3,0.1-0.5,0.2-0.7,0.2c-1,0-1.4-0.8-1.4-1.4c0-0.6,0.3-1.5,1.5-1.5c0.5,0,0.8,0.2,0.8,0.2
		c0,0,0.1-0.1,0.1-0.1c0,0,0.1,0,0.1,0.1l0,0.6c0,0,0,0,0,0c0,0,0,0-0.1-0.2c-0.2-0.5-0.5-0.6-0.8-0.6c-0.7,0-1,0.6-1,1.5
		c0,0.7,0.3,1.3,1,1.3c0.3,0,0.7-0.1,0.7-0.6c0-0.1,0-0.1,0-0.1c0-0.1,0-0.3-0.2-0.3c0,0-0.2,0-0.2-0.1c0,0,0,0,0.1,0
		C38.8,42.5,38.8,42.5,39.3,42.5"/>
	<path d="M41.5,43.6c-0.4-0.2-0.4-0.8,0.4-1.3c-0.2-0.2-0.3-0.5-0.3-0.8c0-0.3,0.3-0.7,0.7-0.7c0.3,0,0.6,0.2,0.6,0.6
		c0,0.3-0.2,0.5-0.6,0.8c0.3,0.5,0.5,0.6,0.6,0.7c0.2-0.2,0.4-0.9,0.8-0.9c0.2,0,0.3,0.1,0.3,0.3c0,0.1-0.1,0.2-0.3,0.2
		c-0.2,0-0.2-0.3-0.2-0.3c-0.1,0-0.6,0.9-0.6,0.9c0.3,0.3,0.7,0.6,1,0.5c0.1-0.1-0.3,0.2-0.6,0.2c-0.3,0-0.5-0.2-0.7-0.4
		C42.5,43.6,41.9,43.9,41.5,43.6 M42,42.4c-0.5,0.3-0.5,0.9-0.2,1.1c0.2,0.1,0.5,0.1,0.8-0.2C42.4,43,42.2,42.7,42,42.4 M42.6,41.4
		c0-0.2-0.1-0.5-0.3-0.5c0,0,0,0,0,0c-0.3,0-0.4,0.4-0.3,0.5c0,0.1,0,0.2,0.3,0.6c0,0,0,0.1,0,0.1C42.4,42,42.6,41.8,42.6,41.4"/>
	<path d="M46.9,41.7c0,0.1,0,0.4,0,0.4c0,0,0,0.4,0,0.5c0,0.1,0,0.1,0,0.1c0,0-0.1-0.1-0.1-0.1c-0.1-0.2-0.1-0.3-0.7-0.3v0.7
		c0,0.4,0,0.6,0.7,0.6c0.4,0,0.6-0.1,0.7-0.4c0,0,0-0.1,0.1-0.1c0,0,0,0,0,0c0,0,0,0.1,0,0.2c0,0.1,0,0.2,0,0.2c0,0.2,0,0.2-0.1,0.2
		c-0.1,0-0.7,0-1.1,0c-1,0-1,0-1,0c0,0-0.1,0-0.1,0c0,0,0,0,0,0c0,0,0.4,0.1,0.4-0.4v-1.9c0-0.2,0-0.3-0.3-0.4c0,0-0.1,0-0.1-0.1
		c0,0,0,0,0.1,0c0,0,0.1,0,0.3,0c0.5,0,1,0,1.2,0H47h0.1c0.2,0,0.3,0,0.3,0.1c0,0.1,0,0.2,0,0.2c0,0,0,0.1,0,0.2
		c0,0.1-0.1,0.1-0.1,0.1c0,0,0-0.1-0.1-0.1c0-0.1,0-0.1,0-0.1c0,0,0-0.1,0-0.1c-0.1-0.1-0.3-0.2-0.6-0.2c-0.5,0-0.5,0-0.5,0.2v1
		c0.3,0,0.6,0,0.7-0.4c0-0.1,0-0.2,0.1-0.2C46.9,41.6,46.9,41.6,46.9,41.7"/>
	<path d="M49.5,43.2l0.4-1c0-0.1,0.1-0.2,0.1-0.3c0.1-0.1,0.1-0.2,0.1-0.3c0-0.1,0.1-0.2,0.1-0.3c0-0.1,0-0.2,0-0.2
		c0-0.1,0-0.1-0.3-0.2c0,0-0.1,0-0.1,0c0,0,0-0.1,0.1-0.1c0,0,0.1,0,0.1,0c0,0,0,0,0,0c0.1,0,0.1,0,0.2,0c0.2,0,0.5,0,0.4,0
		c0.1,0,0.1,0,0.1,0.1c0,0-0.2,0.1-0.2,0.1c-0.1,0-0.1,0.1-0.2,0.2c0,0,0,0.1-0.1,0.2c0,0,0,0.1,0,0.1c0,0,0,0.1,0,0.1l-0.7,1.8
		c0,0,0,0,0,0.1c0,0,0,0.1,0,0.1c0,0.1,0,0.1-0.1,0.1c0,0.1-0.1,0.1-0.1,0.1c0,0-0.1,0.1-0.1,0.1c0,0,0,0-0.1,0c0,0,0,0,0-0.1
		c0,0,0,0,0-0.1l-0.8-2.1c0,0,0,0,0-0.1c0,0,0,0,0-0.1c0,0,0,0,0-0.1c0-0.1-0.1-0.1-0.1-0.2c0-0.1-0.1-0.1-0.1-0.1c0,0,0,0-0.1,0
		c-0.1,0-0.1,0-0.1,0c0,0,0,0,0,0c0,0,0,0,0.1-0.1c0,0,0,0,0.1,0c0,0,0.1,0,0.1,0c0.1,0,0.2,0,0.3,0c0.1,0,0.2,0,0.3,0c0,0,0,0,0,0
		h0c0,0,0.1,0,0.1,0c0,0,0,0,0.1,0h0c0,0,0.1,0,0.1,0c0.1,0,0.1,0,0.1,0c0,0,0,0,0,0c0,0,0,0,0,0c0,0,0,0,0,0c0,0-0.1,0-0.1,0
		c0,0-0.1,0-0.1,0c0,0-0.1,0-0.1,0.1c0,0,0,0,0,0.1c0,0,0,0.1,0,0.1c0,0.1,0,0.1,0.1,0.2c0,0.1,0,0.1,0.1,0.1L49.5,43.2z"/>
	<path d="M52.8,41.7c0,0.1,0,0.4,0,0.4c0,0,0,0.4,0,0.5c0,0.1,0,0.1,0,0.1c0,0-0.1-0.1-0.1-0.1c-0.1-0.2-0.1-0.3-0.7-0.3v0.7
		c0,0.4,0,0.6,0.7,0.6c0.4,0,0.6-0.1,0.7-0.4c0,0,0-0.1,0.1-0.1c0,0,0,0,0,0c0,0,0,0.1,0,0.2c0,0.1,0,0.2,0,0.2c0,0.2,0,0.2-0.1,0.2
		c-0.1,0-0.7,0-1.1,0c-1,0-1,0-1,0c0,0-0.1,0-0.1,0c0,0,0,0,0,0c0,0,0.4,0.1,0.4-0.4v-1.9c0-0.2,0-0.3-0.3-0.4c0,0-0.1,0-0.1-0.1
		c0,0,0,0,0.1,0c0,0,0.1,0,0.3,0c0.5,0,1,0,1.2,0h0.1H53c0.2,0,0.3,0,0.3,0.1c0,0.1,0,0.2,0,0.2c0,0,0,0.1,0,0.2
		c0,0.1-0.1,0.1-0.1,0.1c0,0,0-0.1-0.1-0.1c0-0.1,0-0.1,0-0.1c0,0,0-0.1,0-0.1c-0.1-0.1-0.3-0.2-0.6-0.2c-0.5,0-0.5,0-0.5,0.2v1
		c0.3,0,0.6,0,0.7-0.4c0-0.1,0-0.2,0.1-0.2C52.8,41.6,52.8,41.6,52.8,41.7"/>
	<path d="M56.5,40.8c0.2,0,0.3,0,0.4,0c0,0,0,0,0,0c0,0,0,0,0,0c-0.1,0-0.4,0-0.4,0.4v0.1v2.3c0,0.1,0,0.1-0.1,0.1
		c0,0-0.1,0-0.1-0.1l-1.9-2.3v1.8c0,0.2,0,0.4,0.1,0.4c0,0,0.1,0,0.1,0c0.1,0,0.1,0,0.1,0.1c0,0,0,0.1-0.1,0.1c0,0-0.2,0-0.3,0
		c0,0-0.1,0-0.1,0c-0.1,0-0.1,0-0.2,0c-0.1,0-0.1,0-0.1,0c0,0,0,0,0,0c0,0,0,0,0,0c0,0,0.2,0,0.3-0.1c0,0,0.1-0.1,0.1-0.1
		c0,0,0-0.1,0-0.2v-0.1v-2c0-0.1-0.2-0.2-0.3-0.2c-0.1,0-0.1,0-0.1-0.1c0,0,0,0,0.1,0c0.1,0,0.2,0,0.3,0c0,0,0,0,0.1,0
		c0.1,0,0.2,0,0.3,0.1l1.7,2.2v-1.7c0-0.3-0.1-0.4-0.3-0.4c-0.1,0-0.1-0.1-0.1-0.1c0,0,0,0,0.1,0H56.5z"/>
	<path d="M58.9,43.2c0,0.1,0,0.2,0,0.2c0,0,0,0.1,0.1,0.1c0,0,0.1,0,0.2,0.1c0.1,0,0.1,0,0.2,0c0,0,0,0,0,0c0,0,0,0-0.1,0
		c-0.1,0-0.3,0-0.5,0c-0.1,0-0.2,0-0.6,0h0c0,0,0,0,0,0c-0.1,0-0.1,0-0.1,0c0,0,0,0,0.1-0.1c0.3,0,0.4-0.1,0.4-0.4v-2.1
		c0-0.1,0-0.1-0.2-0.1c0,0,0,0-0.3,0c-0.5,0-0.6,0.1-0.6,0.4c0,0.1,0,0.2-0.1,0.2c0,0,0,0,0-0.1v-0.5c0-0.1,0-0.1,0.1-0.1H60
		c0,0,0.1,0,0.1,0.1v0.5c0,0,0,0.1,0,0.1c0,0,0,0,0,0c-0.1-0.4-0.1-0.5-0.7-0.5c-0.1,0-0.2,0-0.3,0c-0.1,0-0.2,0-0.2,0.1V43.2z"/>
	<path d="M60.7,43c0.1,0.4,0.3,0.6,0.8,0.6c0.4,0,0.6-0.2,0.6-0.6c0-0.2,0-0.4-0.7-0.7c-0.3-0.1-0.8-0.3-0.8-0.8
		c0-0.4,0.3-0.8,0.8-0.8c0.3,0,0.5,0.1,0.5,0.2c0,0,0.1,0,0.1,0c0,0,0,0,0.1-0.1c0,0,0-0.1,0.1-0.1c0,0,0.1,0,0.1,0.2c0,0,0,0,0,0.1
		v0.3c0,0.1,0,0.2,0,0.2c0,0,0,0-0.1-0.1c-0.1-0.3-0.2-0.6-0.7-0.6c-0.2,0-0.5,0.1-0.5,0.4c0,0.2,0.1,0.4,0.6,0.6
		c0.5,0.2,0.9,0.4,0.9,1c0,0.6-0.5,0.8-1,0.8c-0.4,0-0.6-0.2-0.7-0.2c0,0,0,0,0,0c0,0-0.1,0-0.1,0.1c0,0,0,0-0.1,0c0,0,0-0.1,0-0.2
		c0,0,0-0.1,0-0.4c0-0.1,0-0.2,0-0.2v0v0c0,0,0-0.1,0-0.1C60.7,42.8,60.7,42.9,60.7,43"/>
	<path d="M38.6,22.7c0,0-0.6,0.5-1,1.1c-0.8,1.2-2.2,3.3-3.6,5.5c0.3,3.2,0.6,6.3,0.6,6.3c0.1,0.7,0.4,1.3,0.5,1.4h-2.1
		c0-0.1,0.3-0.9,0.3-1.4c-0.1-1.1-0.2-2.8-0.4-4.7c-1.7,2.5-4.4,5.9-6,7.5c0,0,2.2-3,4-5.6c0.8-1.1,1.5-2.1,1.9-2.8
		c-0.2-2.4-0.5-4.9-0.6-6.2c-0.1-0.6-0.3-1.2-0.3-1.2h1.8c0,0-0.2,0.5-0.2,1.1c0.1,1,0.3,2.8,0.4,4.6c1.2-1.8,2.3-3.6,3-4.6
		c0.4-0.6,0.6-1.2,0.6-1.2H38.6z"/>
	<path d="M12.2,39.4l4.1-12.7h-3c0.1-0.2,0.1-0.3,0.2-0.5h3l0.1-0.5c1.3-4.4,4.1-10.3,9.3-8.5c-5.7-0.7-7.2,6.4-7.7,8.1
		c0,0-0.1,0.3-0.3,0.8h2.9l-0.2,0.5h-2.9c-1.1,3.5-4,12.4-4,12.4c-1.4,4.4-5.8,10.5-13.3,11C8.7,48.9,11.8,40.6,12.2,39.4L12.2,39.4
		z"/>
	<path d="M54.1,22.7c0,0-0.3,0.6-0.5,1.5l-3,10.1c-1.3,3.9,2-1,2.3-1.7c-2.2,4.9-4.8,6-3.8,2c-2.6,3.2-5.2,3.5-5.1-0.6
		c0.2-3.8,6.6-14,8.4-10.3c0.2-0.7,0.1-0.9,0.1-0.9H54.1z M48.3,34.5c1.4-1.5,3.4-8.9,3.4-10c-0.1-4.6-5.8,4.9-6.3,9.2
		C44.9,37.6,46.6,36.4,48.3,34.5"/>
	<path d="M58.8,25.2l-1.6,5.4c0.4,0.8,1,1.5,1.7,2.4c-0.5-0.3-1.2-1-1.8-2l-1.4,4.7c-0.2,0.7-0.1,1.3-0.1,1.3h-1.8
		c0.1-0.1,0.5-0.9,0.6-1.3c0.4-1.5,1.2-4,1.8-6.2c-0.8-1.8-1-4,0.4-5.9C58.1,21.7,59.6,22.2,58.8,25.2 M57.3,23.9
		c-0.7,0.4-1.5,2.3-0.9,4.8c0.7-2.2,1.2-4.1,1.2-4.1C57.8,24.1,57.8,23.6,57.3,23.9 M59.8,19c-0.6,0-1-0.5-1-1c0-0.6,0.5-1,1-1
		c0.6,0,1,0.5,1,1C60.9,18.5,60.3,19,59.8,19"/>
	<path d="M60.4,34.7l1.7-5.6c-0.4-0.8-1-1.6-1.8-2.4c0.5,0.3,1.2,1.1,1.9,2.1l4-13.4c0.2-1,0-1.3,0-1.3h2.1
		c-0.1,0.1-0.5,0.7-0.7,1.4c-0.5,1.5-3.8,12.6-4.5,14.9c0.8,1.8,1.1,4-0.4,6C61.2,38.2,59.6,37.8,60.4,34.7 M61.9,36.1
		c0.7-0.4,1.6-2.3,1-5c-0.7,2.3-1.2,4.2-1.2,4.2C61.5,35.8,61.5,36.3,61.9,36.1"/>
	<path d="M22.2,37c-1.9-0.5-2-3.5-0.9-6.4c1.2-3,3-8.8,6.4-8c2.9,0.6,1.1,5.7,0.1,8.9C26.5,35.9,24.7,37.7,22.2,37 M26.5,31.2
		c1.1-4.3,2.9-7.7,1-8.1c-1.9-0.5-3.8,4.9-4.8,8.1c-0.9,2.7-1.3,5-0.2,5.6C24.1,37.3,25.6,34.3,26.5,31.2"/>
	<path d="M43.7,22.7c0.6-2,1.1-3.7,1.3-4.4c0.2-0.5,0.6-1.3,0.8-1.4h-2.1c0,0,0.3,0.3-0.1,1.3c0,0-0.6,2.1-1.3,4.4h-2.8l-0.2,0.5
		h2.8c-0.8,2.6-1.4,4.7-1.4,4.7c-0.7-2-1.8-3.6-3-5.1c-1.2-1.7-4.1-4.5-4.1-4.5c-1.2-1.7-2.6-4.4-3.4-5.8c-0.4-0.6-1.5-3-1.6-3.6
		c-0.2-0.4-1.3-3.7-1.4-3.8c-0.1-0.2-0.1-0.3-0.2-0.4C27.1,4.3,27,4,26.9,3.7c0,0.1,0,0.5,0.1,0.7c0.1,0.2,1.9,6.1,2,6.3
		c-0.4-0.3-0.6-0.7-0.9-1.1c-0.5-0.5-2.4-3.8-3.4-5.4c-0.3-0.4-0.5-1-0.7-1.5c0,0.2,0.1,0.5,0.2,0.8c0,0,0.7,1.4,0.7,1.4
		c0.7,1.4,1.8,3.3,1.9,3.5c-0.1,0.1-3.5-4.4-5.4-6.8C21,1,20.8,0.8,20.5,0c0,0.2,0.1,0.7,0.5,1.1c0.3,0.4,0.8,1,0.8,1
		c2.1,2.8,5.8,7.8,5.9,8.1c-0.3-0.2-3.4-3.9-4.8-5.5c0,0-0.7-0.8-1-1.3c0,0.1,0.2,0.3,0.3,0.6l0,0c0.3,0.6,5,6.1,5.3,6.6
		c-0.2-0.1-1.5-1.5-1.9-1.9C23.9,7,18.4,1,18.3,0.9c-0.2-0.3-0.5-0.6-0.7-0.9c0.1,0.3,0.5,0.8,1,1.4c0,0,5.3,5.9,5.8,6.7
		c-1.2-0.2-6-4-6-4c-1-0.8-2.7-2.2-2.7-2.2c-0.3-0.3-0.7-0.6-1-0.8c-0.3-0.2-0.8-0.5-1-0.5c0.6,0.4,1,0.7,1.5,1.1
		c1.9,1.9,5.5,5.1,7,7.2c-2.1-1.7-5.4-3.3-6.7-3.6C14.2,5.1,13,5.1,13,5.1c3.4,0.4,4,1.1,4,1.1c3,1.6,5.3,3.4,6.3,4.6
		c-2-1.4-4.7-2.6-5.9-2.8c-1.2-0.2-2.5-0.1-2.5-0.1c4.5,0,8.2,3.3,9.2,4.4c-2.2-1.2-5-2.2-6.2-2.2c-1.2-0.1-2.5,0.1-2.5,0.1
		c3.5-0.1,4.3,0.5,4.3,0.5c2,0.7,3.7,1.6,4.9,2.4c-1.4-0.6-3.4-0.7-4.8-0.4c-1.2,0.2-2.2,0.6-2.2,0.6c3.2-0.8,4.2-0.5,4.2-0.5
		c3,0.4,3.5,1.2,3.7,1.4c-0.9-0.1-1.7,0.1-2.5,0.3c-1.2,0.2-2.3,0.8-2.3,0.8c3.3-0.8,4.3-0.6,4.3-0.6c1.8-0.1,6.4,2.4,8.6,3.6
		c3.7,3,6.6,7.9,7.1,10.9l-1.7,5c-0.8,3,0.7,3.5,2.3,1.7c1.5-2,1.2-4.2,0.4-6c0.4-1.2,1.2-4.2,2-6.9h2.8l0.2-0.5H43.7z M26.7,10.7
		c0.7-0.2,2.2,2.8,2,2.8C28.5,13.6,26,10.9,26.7,10.7 M24.8,10.8c-0.9-0.6-1.3-1.1-1.1-1.5c0.1-0.1,0.1-0.2,0.2-0.2
		c0.1,0,0.3,0,0.6,0.2c0.8,0.6,1.8,2.1,2,2.4C26.2,11.7,25.5,11.2,24.8,10.8 M25.4,12c0.1-0.7,3,1.5,3,1.7
		C28.4,13.9,25.3,12.8,25.4,12 M26.8,14.2c0.1-0.9,3.2,0.8,3.2,1.1C29.9,15.5,26.7,15,26.8,14.2 M30.4,15C30,15,28,12,28.9,11.9
		C29.7,11.7,30.6,14.9,30.4,15 M40.3,35.7c-0.5,0.3-0.4-0.3-0.3-0.8c0,0,0.6-1.9,1.2-4.2C41.9,33.4,41,35.3,40.3,35.7"/>
</g>
</svg>
