<?xml version="1.0" encoding="utf-8"?>
<!-- Generator: Adobe Illustrator 21.1.0, SVG Export Plug-In . SVG Version: 6.00 Build 0)  -->
<!DOCTYPE svg PUBLIC "-//W3C//DTD SVG 1.1//EN" "http://www.w3.org/Graphics/SVG/1.1/DTD/svg11.dtd">
<svg version="1.1" id="Layer_1" xmlns="http://www.w3.org/2000/svg" xmlns:xlink="http://www.w3.org/1999/xlink" x="0px" y="0px"
	 viewBox="0 0 204 150" style="enable-background:new 0 0 204 150;" xml:space="preserve">
<style type="text/css">
	.st0{fill:#FFFFFF;}
</style>
<g>
	<path class="st0" d="M57.1,130.7c0,0.1-0.1,0.1-0.1,0.1c-0.1,0-0.1,0-0.1-0.1c-0.1-0.2-0.2-0.3-0.3-0.3c0,0-0.1,0-0.1,0
		c-0.1,0-1.1,0.8-2.6,0.8c-2.3,0-4.4-1.5-4.4-4.3c0-2,1.3-4.6,4.5-4.6c1.3,0,2.4,0.6,2.5,0.7c0.1,0,0.2-0.2,0.2-0.3
		c0-0.1,0-0.2,0.1-0.2c0,0,0.1,0.1,0.1,0.3l0.1,1.9v0.1c0,0.2,0,0.3-0.1,0.3c-0.1,0-0.6-2.4-2.8-2.4c-1.3,0-3.1,0.8-3.1,4.3
		c0,2.8,1.5,4,3,4c1.4,0,2.1-0.4,2.9-2.8c0,0,0.1-0.1,0.1-0.1c0,0,0.1,0,0.1,0.1V130.7z"/>
	<path class="st0" d="M63.9,127.9h-3.2l-0.6,1.4c-0.1,0.3-0.2,0.6-0.2,0.7c0,0.2,0,0.6,0.6,0.7c0.2,0,0.4,0.1,0.4,0.2
		c0,0,0,0.1-0.2,0.1h-0.1c-0.2,0-0.9-0.1-1.1-0.1c0,0-0.1,0-0.4,0c-0.3,0-0.4,0-0.5,0c-0.3,0-0.4,0-0.4-0.2c0,0,0.1-0.1,0.3-0.2
		c0.3,0,0.7-0.2,1-0.7c0.1-0.2,0.2-0.4,0.3-0.7l2.8-6.7c0.1-0.1,0.2-0.2,0.2-0.2c0.1,0,0.2,0.1,0.2,0.3l2.8,7.1
		c0.2,0.6,0.5,1,1.2,1.1c0.2,0,0.3,0.1,0.3,0.2c0,0.1-0.1,0.1-0.4,0.1c-0.8,0-1.3,0-1.6,0c-0.7,0-1.4,0.1-1.4,0.1
		c-0.2,0-0.4,0-0.4-0.1c0,0,0,0,0,0c0-0.1,0.1-0.1,0.3-0.1c0.7-0.1,0.9-0.3,0.6-1.3L63.9,127.9z M62.4,123.9l-1.5,3.7h2.9
		L62.4,123.9z"/>
	<path class="st0" d="M71.2,129.6c0,0.3,0,0.5,0.1,0.6c0,0.1,0.1,0.3,0.2,0.3c0.1,0.1,0.3,0.1,0.5,0.2c0.2,0,0.4,0.1,0.5,0.1
		c0.1,0,0.1,0.1,0.1,0.1c0,0.1,0,0.1-0.3,0.1c-0.2,0-0.9,0-1.6,0c-0.4,0-0.7,0-1.8,0h-0.1c0,0,0,0-0.1,0c-0.2,0-0.3,0-0.3-0.1
		c0-0.1,0.1-0.1,0.2-0.2c0.9-0.1,1.2-0.3,1.2-1.2v-6.4c0-0.2,0-0.4-0.8-0.4c-0.1,0,0.1,0-0.9,0c-1.4,0-1.7,0.3-1.9,1.1
		c-0.1,0.3-0.1,0.5-0.2,0.5c-0.1,0-0.1-0.1-0.1-0.2v-1.4c0-0.2,0-0.3,0.4-0.3h8.1c0.1,0,0.4,0,0.4,0.3v1.4c0,0.1-0.1,0.2-0.1,0.2
		c0,0-0.1,0-0.1-0.1c-0.2-1.1-0.3-1.5-2.1-1.5c-0.3,0-0.6,0-0.9,0c-0.2,0-0.5,0-0.5,0.4V129.6z"/>
	<path class="st0" d="M81.1,125.2c0,0.2-0.1,1.3-0.1,1.3c0,0.1,0.1,1.1,0.1,1.4c0,0.3,0,0.3-0.1,0.3c-0.1,0-0.2-0.2-0.2-0.4
		c-0.2-0.6-0.4-1-2-1v2.1c0,1.3,0,1.9,2,1.9c1.2,0,1.9-0.4,2.2-1.3c0-0.1,0.1-0.4,0.2-0.4c0,0,0,0,0,0c0.1,0,0.1,0.2,0.1,0.6
		c0,0.3,0,0.5,0,0.7c0,0.5,0,0.7-0.3,0.7c-0.2,0-2.2-0.1-3.3-0.1c-3,0-3,0.1-3.1,0.1c0,0-0.3,0-0.3-0.1c0,0,0-0.1,0.1-0.1
		c0.1-0.1,1.1,0.2,1.1-1.2v-5.7c0-0.6,0-1-0.8-1.1c-0.1,0-0.4,0-0.4-0.2c0-0.1,0-0.1,0.4-0.1c0.1,0,0.4,0,1,0.1c1.4,0,3.1,0,3.7-0.1
		h0.1h0.4c0.6,0,0.9,0.1,0.9,0.3c0,0.2-0.1,0.5-0.1,0.7c0,0,0.1,0.4,0.1,0.7c0,0.2-0.2,0.3-0.2,0.2c-0.1,0-0.1-0.4-0.2-0.4
		c0-0.2-0.1-0.3-0.1-0.3c0-0.1-0.1-0.2-0.1-0.2c-0.3-0.4-1-0.6-1.9-0.6c-1.4,0-1.4,0-1.4,0.7v2.9c0.8,0,1.8,0,2-1.2
		c0-0.2,0.1-0.5,0.2-0.5C81,124.8,81.1,124.7,81.1,125.2"/>
	<path class="st0" d="M87,129.6c0,1,0.1,1,1.1,1.2c0.1,0,0.1,0.1,0.1,0.1c0,0.1-0.1,0.1-0.4,0.1c0.2,0-1.5-0.1-1.5-0.1
		c-0.2,0-1.2,0.1-1.7,0.1c-0.1,0-0.2,0-0.2-0.1c0-0.1,0.1-0.1,0.2-0.1c0.6-0.1,1-0.1,1-1.2v-5.7c0-0.4-0.1-0.6-0.2-0.8
		c-0.1-0.2-0.3-0.3-0.6-0.3c-0.3,0-0.5-0.1-0.5-0.2c0-0.1,0.2-0.1,0.5-0.1c0.2,0,0.6,0,1.3,0c0,0,0.5,0,0.8,0c0.1,0,0.2,0,0.5,0
		c0.4,0,0.6,0,0.6,0c2.1,0,3.1,0.6,3.1,2.2c0,1.1-0.5,1.9-2.4,2.2l2.7,3.2c0.3,0.3,0.7,0.6,1,0.7c0.2,0,0.3,0.1,0.3,0.2
		c0,0,0,0.1-0.4,0.1h-0.1c-0.2,0-0.4,0-0.8,0c-0.5,0-0.5,0-0.5,0c-0.2,0-0.4-0.1-0.6-0.2l-2.7-3.4c-0.1-0.1-0.1-0.1-0.3-0.2
		c-0.1-0.1-0.2-0.1-0.3-0.1c-0.2,0-0.3,0.1-0.3,0.3V129.6z M87,126.5c0,0.1,0,0.2,0.1,0.3c0,0,0,0.1,0.4,0.1c2.1,0,2.4-1,2.4-2
		c0-1.3-0.6-2-2-2.1h-0.2c-0.2,0-0.3,0-0.4,0.1c-0.1,0.1-0.2,0.2-0.2,0.4V126.5z"/>
	<path class="st0" d="M97.3,122.5c0.4,0,0.6,0,0.6,0.1c0,0.1-0.1,0.1-0.2,0.1c-0.6,0.1-1,0.2-1,1.1v5.7c0,1,0.2,1,1.2,1.2
		c0.1,0,0.1,0.1,0.1,0.1c0,0.1,0,0.1-0.4,0.1c0,0-1.5-0.1-1.7-0.1c0,0-1.7,0.1-1.6,0.1c-0.1,0-0.4,0-0.4-0.1c0-0.1,0.1-0.2,0.3-0.2
		c0.9,0,1.1-0.4,1.1-1.2v-5.7c0-0.9-0.3-1-1-1.1c-0.2,0-0.2,0-0.2-0.1c0-0.1,0.1-0.1,0.6-0.1c0.7,0,1.3,0.1,1.3,0.1
		C96,122.6,96.6,122.5,97.3,122.5"/>
	<path class="st0" d="M107.2,122.5c0.5,0,1,0,1.1,0c0,0.1,0.1,0.1,0.1,0.1c0,0,0,0.1-0.1,0.1c-0.2,0.1-1.1-0.1-1.1,1.1v0.2v6.8
		c0,0.3-0.1,0.4-0.2,0.4c-0.1,0-0.3-0.1-0.4-0.3l-5.7-7v5.5c0,0.6,0.1,1.1,0.4,1.2c0.1,0.1,0.3,0.1,0.4,0.1c0.2,0,0.3,0,0.3,0.2
		c0,0.1,0.1,0.2-0.4,0.2c0,0-0.7-0.1-1-0.1c-0.1,0-0.3,0-0.4,0c-0.2,0-0.3,0-0.5,0c-0.2,0-0.3,0-0.3,0c-0.1,0-0.1-0.1-0.1-0.1
		c0,0,0-0.1,0.1-0.1c0,0,0.6-0.1,0.9-0.3c0.1-0.1,0.2-0.2,0.2-0.4c0-0.1,0-0.3,0-0.5v-0.2v-5.9c-0.1-0.3-0.5-0.6-1-0.6
		c-0.2-0.1-0.4-0.1-0.4-0.2c0-0.1,0.1-0.1,0.4-0.1c0.2,0,0.7,0,1,0c0,0,0.1,0,0.2,0c0.2,0,0.5-0.1,0.8,0.2l5.2,6.5v-5.2
		c0-1-0.3-1.3-1-1.3c-0.4-0.1-0.4-0.2-0.4-0.2c0,0,0.1-0.1,0.4-0.1H107.2z"/>
	<path class="st0" d="M116.8,127.6c0.4-0.1,0.7-0.1,1-0.1c0.1,0,0.4,0,0.4,0.1c0,0-0.1,0.1-0.3,0.2c-0.4,0.2-0.6,0.2-0.6,1.2
		c0,0.3,0,0.7,0.1,1.2c-0.3,0-0.6-0.1-1.8,0.6c-0.9,0.4-1.5,0.5-2.1,0.5c-3,0-4.2-2.3-4.2-4.3c0-1.8,1-4.6,4.5-4.6
		c1.4,0,2.3,0.6,2.5,0.6c0.1,0,0.3-0.4,0.4-0.4c0.1,0,0.2,0.1,0.2,0.4l-0.1,1.9c0,0.1-0.1,0.1-0.1,0.1c-0.1,0,0,0.1-0.3-0.6
		c-0.5-1.5-1.5-1.8-2.5-1.8c-2.2,0-3,1.9-3,4.4c0,2.2,0.9,3.9,3,3.9c0.9,0,2.1-0.2,2.1-1.9c0-0.2,0-0.2,0-0.3c0-0.3,0-0.8-0.7-0.9
		c-0.1,0-0.5-0.1-0.5-0.2c0,0,0-0.1,0.4-0.1C115.1,127.5,115.3,127.6,116.8,127.6"/>
	<path class="st0" d="M123.2,131c-1.1-0.7-1.2-2.5,1.3-4c-0.5-0.7-0.9-1.6-0.9-2.4c0-1,0.8-2.2,2-2.2c0.8,0,1.7,0.7,1.7,1.7
		c0,0.9-0.5,1.6-1.7,2.5c1,1.4,1.4,1.8,1.8,2.2c0.5-0.6,1.3-2.8,2.5-2.8c0.5,0,0.9,0.4,0.9,0.8c0,0.3-0.2,0.7-0.8,0.7
		c-0.5-0.1-0.5-1-0.6-1c-0.3,0-1.9,2.5-1.8,2.7c0.8,1,2,1.9,3.1,1.4c0.4-0.2-0.9,0.7-1.7,0.7c-0.8,0-1.5-0.5-2.2-1.2
		C126.2,130.8,124.5,131.8,123.2,131 M124.7,127.2c-1.5,1-1.5,2.6-0.5,3.2c0.6,0.4,1.5,0.3,2.5-0.7
		C125.9,129,125.2,128.1,124.7,127.2 M126.5,124.2c0-0.7-0.2-1.5-1-1.5c-0.1,0-0.1,0-0.1,0c-0.9,0.1-1.1,1.2-1,1.6
		c0,0.3,0.1,0.6,0.9,1.9c0.1,0.1,0.1,0.2,0.1,0.2C125.9,125.9,126.5,125.3,126.5,124.2"/>
	<path class="st0" d="M139.5,125.2c0,0.2-0.1,1.3-0.1,1.3c0,0.1,0.1,1.1,0.1,1.4c0,0.3,0,0.3-0.1,0.3c-0.1,0-0.2-0.2-0.2-0.4
		c-0.2-0.6-0.4-1-2-1v2.1c0,1.3,0,1.9,2,1.9c1.2,0,1.9-0.4,2.2-1.3c0-0.1,0.1-0.4,0.2-0.4c0,0,0,0,0,0c0.1,0,0.1,0.2,0.1,0.6
		c0,0.3,0,0.5,0,0.7c0,0.5,0,0.7-0.3,0.7c-0.2,0-2.2-0.1-3.3-0.1c-3,0-3,0.1-3.1,0.1c0,0-0.3,0-0.3-0.1c0,0,0-0.1,0.1-0.1
		c0.1-0.1,1.1,0.2,1.1-1.2v-5.7c0-0.6,0-1-0.8-1.1c-0.1,0-0.4,0-0.4-0.2c0-0.1,0-0.1,0.4-0.1c0.1,0,0.4,0,1,0.1c1.4,0,3.1,0,3.7-0.1
		h0.2h0.4c0.6,0,0.9,0.1,0.9,0.3c0,0.2,0,0.5,0,0.7c0,0,0.1,0.4,0.1,0.7c0,0.2-0.2,0.3-0.2,0.2c0,0-0.1-0.4-0.2-0.4
		c0-0.2-0.1-0.3-0.1-0.3c0-0.1-0.1-0.2-0.1-0.2c-0.3-0.4-0.9-0.6-1.9-0.6c-1.4,0-1.4,0-1.4,0.7v2.9c0.8,0,1.8,0,2-1.2
		c0-0.2,0.1-0.5,0.2-0.5C139.4,124.8,139.5,124.7,139.5,125.2"/>
	<path class="st0" d="M147.2,129.7l1.3-3.1c0.1-0.3,0.2-0.6,0.3-0.8c0.2-0.4,0.3-0.7,0.3-0.9c0.1-0.3,0.2-0.6,0.3-0.8
		c0.1-0.3,0.1-0.6,0.1-0.7c0-0.3-0.1-0.4-0.8-0.5c0,0-0.2,0-0.2-0.1c0-0.1,0.1-0.2,0.2-0.2c0.1,0,0.3,0,0.3,0c0,0,0.1,0,0.1,0
		c0.2,0,0.4,0,0.6,0c0.5,0,1.5,0,1.3,0c0.2,0,0.2,0,0.2,0.2c0,0.1-0.6,0.2-0.6,0.2c-0.2,0.1-0.4,0.3-0.6,0.6
		c-0.1,0.1-0.1,0.3-0.2,0.5c0,0.1-0.1,0.2-0.1,0.3c0,0.1-0.1,0.2-0.1,0.2l-2.2,5.3c0,0,0,0.1-0.1,0.2c0,0.1-0.1,0.2-0.1,0.2
		c-0.1,0.2-0.1,0.3-0.2,0.4c-0.1,0.2-0.2,0.3-0.2,0.4c-0.1,0.1-0.2,0.2-0.3,0.3c-0.1,0-0.1,0-0.2-0.1c0-0.1-0.1-0.1-0.1-0.2
		c0-0.1-0.1-0.1-0.1-0.2l-2.4-6.3c0-0.1-0.1-0.1-0.1-0.2c0,0,0-0.1,0-0.2c0,0,0-0.1-0.1-0.2c-0.1-0.2-0.2-0.4-0.3-0.6
		c-0.1-0.2-0.2-0.3-0.4-0.3c0,0-0.1,0-0.4-0.1c-0.2,0-0.3-0.1-0.3-0.1c0,0-0.1-0.1-0.1-0.1c0-0.1,0.1-0.1,0.2-0.2c0,0,0.1,0,0.2,0
		c0.1,0,0.2,0,0.2,0c0.3,0,0.6,0.1,1,0.1c0.2,0,0.5,0,0.8,0c0,0,0,0,0.1,0h0.1c0.1,0,0.2,0,0.2,0c0,0,0.1,0,0.2,0h0.1
		c0.1,0,0.2,0,0.3,0c0.2,0,0.2,0,0.3,0c0,0,0,0,0,0.1c0,0,0,0.1,0,0.1c0,0,0,0.1-0.1,0.1c-0.1,0-0.2,0-0.3,0c-0.1,0-0.3,0-0.3,0.1
		c-0.1,0-0.2,0.1-0.2,0.2c0,0.1-0.1,0.1-0.1,0.3c0,0.1,0,0.3,0.1,0.4c0,0.2,0.1,0.4,0.2,0.6c0.1,0.2,0.1,0.4,0.2,0.4L147.2,129.7z"
		/>
	<path class="st0" d="M157.2,125.2c0,0.2-0.1,1.3-0.1,1.3c0,0.1,0.1,1.1,0.1,1.4c0,0.3,0,0.3-0.1,0.3c-0.1,0-0.2-0.2-0.2-0.4
		c-0.2-0.6-0.4-1-2-1v2.1c0,1.3,0,1.9,2,1.9c1.2,0,1.9-0.4,2.2-1.3c0-0.1,0.1-0.4,0.2-0.4c0,0,0,0,0,0c0.1,0,0.1,0.2,0.1,0.6
		c0,0.3,0,0.5,0,0.7c0,0.5,0,0.7-0.3,0.7c-0.2,0-2.2-0.1-3.3-0.1c-3,0-3,0.1-3.1,0.1c0,0-0.3,0-0.3-0.1c0,0,0-0.1,0.1-0.1
		c0.1-0.1,1.1,0.2,1.1-1.2v-5.7c0-0.6,0-1-0.8-1.1c-0.1,0-0.4,0-0.4-0.2c0-0.1,0-0.1,0.4-0.1c0.1,0,0.4,0,1,0.1c1.4,0,3.1,0,3.7-0.1
		h0.2h0.4c0.6,0,0.9,0.1,0.9,0.3c0,0.2,0,0.5,0,0.7c0,0,0.1,0.4,0.1,0.7c0,0.2-0.2,0.3-0.2,0.2c-0.1,0-0.1-0.4-0.2-0.4
		c0-0.2-0.1-0.3-0.1-0.3c0-0.1-0.1-0.2-0.1-0.2c-0.3-0.4-0.9-0.6-1.9-0.6c-1.4,0-1.4,0-1.4,0.7v2.9c0.8,0,1.8,0,2-1.2
		c0-0.2,0.1-0.5,0.2-0.5C157,124.8,157.2,124.7,157.2,125.2"/>
	<path class="st0" d="M168.3,122.5c0.5,0,1,0,1.1,0c0,0.1,0.1,0.1,0.1,0.1c0,0,0,0.1-0.1,0.1c-0.2,0.1-1.1-0.1-1.1,1.1v0.2v6.8
		c0,0.3-0.1,0.4-0.2,0.4c-0.1,0-0.3-0.1-0.4-0.3l-5.7-7v5.5c0,0.6,0.1,1.1,0.4,1.2c0.1,0.1,0.3,0.1,0.4,0.1c0.2,0,0.3,0,0.3,0.2
		c0,0.1,0,0.2-0.4,0.2c0,0-0.7-0.1-1-0.1c-0.1,0-0.3,0-0.4,0c-0.2,0-0.3,0-0.5,0c-0.2,0-0.3,0-0.3,0c-0.1,0-0.1-0.1-0.1-0.1
		c0,0,0-0.1,0.1-0.1c0,0,0.6-0.1,0.9-0.3c0.1-0.1,0.2-0.2,0.2-0.4c0-0.1,0-0.3,0-0.5v-0.2v-5.9c-0.1-0.3-0.5-0.6-1-0.6
		c-0.3-0.1-0.4-0.1-0.4-0.2c0-0.1,0.1-0.1,0.4-0.1c0.2,0,0.7,0,1,0c0,0,0.1,0,0.2,0c0.2,0,0.5-0.1,0.8,0.2l5.2,6.5v-5.2
		c0-1-0.3-1.3-1-1.3c-0.4-0.1-0.4-0.2-0.4-0.2c0,0,0.1-0.1,0.4-0.1H168.3z"/>
	<path class="st0" d="M175.4,129.6c0,0.3,0,0.5,0.1,0.6c0,0.1,0.1,0.3,0.2,0.3c0.1,0.1,0.3,0.1,0.5,0.2c0.2,0,0.4,0.1,0.5,0.1
		c0.1,0,0.1,0.1,0.1,0.1c0,0.1,0,0.1-0.3,0.1c-0.2,0-0.9,0-1.6,0c-0.4,0-0.7,0-1.8,0h-0.1c0,0,0,0-0.1,0c-0.2,0-0.3,0-0.3-0.1
		c0-0.1,0.1-0.1,0.2-0.2c0.9-0.1,1.2-0.3,1.2-1.2v-6.4c0-0.2,0-0.4-0.7-0.4c-0.1,0,0.1,0-0.9,0c-1.4,0-1.7,0.3-1.9,1.1
		c-0.1,0.3-0.1,0.5-0.2,0.5c-0.1,0-0.1-0.1-0.1-0.2v-1.4c0-0.2,0.1-0.3,0.4-0.3h8.1c0.1,0,0.4,0,0.4,0.3v1.4c0,0.1,0,0.2-0.1,0.2
		c0,0-0.1,0-0.1-0.1c-0.2-1.1-0.3-1.5-2.1-1.5c-0.3,0-0.6,0-0.9,0c-0.2,0-0.5,0-0.5,0.4V129.6z"/>
	<path class="st0" d="M180.9,129c0.4,1.2,0.9,1.9,2.3,1.9c1.1,0,1.8-0.7,1.8-1.7c0-0.6-0.1-1.3-2-2.1c-0.8-0.3-2.3-0.9-2.3-2.5
		c0-1.3,1-2.3,2.5-2.3c0.9,0,1.6,0.4,1.6,0.5c0.1,0.1,0.2,0.1,0.2,0.1c0.1,0,0.1-0.1,0.2-0.2c0.1-0.1,0.1-0.2,0.2-0.2
		c0.1,0,0.2,0.1,0.2,0.5c0,0.1,0,0.1,0,0.2v0.9c0,0.2,0.1,0.7-0.1,0.7c-0.1,0-0.1-0.1-0.2-0.3c-0.4-1-0.7-1.7-2-1.7
		c-0.7,0-1.5,0.4-1.6,1.3c0,0.7,0.3,1.2,1.9,1.9c1.4,0.6,2.7,1.3,2.7,2.9c0,1.8-1.6,2.5-3,2.5c-1.1,0-1.9-0.5-2.1-0.7
		c0,0-0.1,0-0.1,0c-0.1,0-0.2,0.1-0.3,0.3c0,0.1-0.1,0.1-0.2,0.1c-0.1-0.1,0-0.3,0-0.5c0-0.1,0.1-0.2,0-1.1c0-0.3,0-0.5,0-0.5v-0.1
		v-0.1c0-0.1,0-0.2,0.1-0.2C180.7,128.5,180.8,128.7,180.9,129"/>
	<path class="st0" d="M114.5,68c0,0-1.9,1.6-3.1,3.4c-2.3,3.5-6.5,10-10.7,16.4c0.9,9.5,1.7,18.9,1.7,19c0.4,2.2,1.3,3.9,1.5,4.1
		h-6.4c0.1-0.2,1-2.7,0.9-4.2c-0.2-3.2-0.6-8.4-1.1-14c-5,7.6-13.1,17.7-18,22.6c-0.1,0.1,6.5-9,12-16.7c2.4-3.3,4.5-6.4,5.8-8.3
		c-0.7-7.2-1.4-14.6-1.8-18.6c-0.2-1.9-1-3.6-1-3.6h5.3c0,0-0.7,1.6-0.5,3.4c0.3,3.1,0.8,8.3,1.2,13.9c3.6-5.5,7-10.7,8.9-13.8
		c1.3-1.9,1.7-3.6,1.7-3.6H114.5z"/>
	<path class="st0" d="M35.5,118.2l12.2-38.1h-8.9c0.2-0.6,0.3-1,0.5-1.5h8.9l0.4-1.4c4-13.1,12.2-30.8,28-25.4
		c-17.2-2-21.5,19.3-23.1,24.2c0,0-0.3,1-0.8,2.5h8.7l-0.6,1.5h-8.6c-3.4,10.6-11.9,37-11.9,37c-4.1,13.1-17.4,31.4-39.9,32.8
		C25.1,146.8,34.3,121.8,35.5,118.2L35.5,118.2z"/>
	<path class="st0" d="M160.9,68c0,0-0.9,1.7-1.6,4.4l-9.1,30.3c-4,11.6,5.9-3.1,7-5.2c-6.6,14.6-14.5,18.1-11.4,6.1
		c-7.7,9.5-15.6,10.4-15.2-1.7c0.5-11.4,19.8-42,25.3-31c0.7-2.1,0.4-2.8,0.4-2.8H160.9z M143.7,103.5c4.2-4.5,10.3-26.6,10.1-30
		c-0.4-13.7-17.4,14.8-19,27.6C133.4,112.7,138.7,109.3,143.7,103.5"/>
	<path class="st0" d="M175.1,75.6l-4.9,16.2c1.3,2.3,3,4.6,5.2,7.1c-1.4-0.9-3.5-3-5.5-6l-4.3,14.2c-0.5,2.1-0.3,3.9-0.3,3.9h-5.4
		c0.3-0.3,1.6-2.7,1.9-4c1.3-4.5,3.5-11.9,5.5-18.7c-2.3-5.3-3.1-11.9,1.2-17.6C173,65.3,177.5,66.7,175.1,75.6 M170.8,71.6
		c-2,1.1-4.6,6.9-2.8,14.4c2-6.7,3.6-12.2,3.6-12.2C172,72.5,172.1,70.9,170.8,71.6 M178.2,56.9c-1.7,0-3.1-1.4-3.1-3.1
		c0-1.7,1.4-3.1,3.1-3.1c1.7,0,3.1,1.4,3.1,3.1c0,1.7-1.7,3.1-3.4,3.1"/>
	<path class="st0" d="M180.1,104.2l5-16.8c-1.3-2.3-3.1-4.7-5.4-7.2c1.4,0.9,3.7,3.2,5.7,6.2l12.1-40.1c0.7-3.1,0.1-4,0.1-4h6.2
		c-0.4,0.2-1.5,2.1-2.2,4.1c-1.5,4.6-11.4,37.8-13.5,44.7c2.5,5.5,3.3,12.1-1.1,18.1C182.2,114.8,177.6,113.4,180.1,104.2
		 M184.5,108.2c2.1-1.1,4.9-7,2.9-14.9c-2.1,7-3.7,12.6-3.7,12.6C183.3,107.4,183.1,109,184.5,108.2"/>
	<path class="st0" d="M65.4,111.1c-5.6-1.5-5.9-10.4-2.6-19.2c3.5-9.1,8.9-26.4,19.2-24.1c8.6,1.9,3.2,17.2,0.3,26.8
		C78.4,107.7,72.9,113.1,65.4,111.1 M78.3,93.5c3.4-13,8.8-22.9,3.1-24.4C75.7,67.6,70,83.8,66.8,93.3c-2.7,8.2-3.9,15.1-0.6,16.7
		C71,112.1,75.7,103.1,78.3,93.5"/>
	<path class="st0" d="M129.8,68c1.8-6.1,3.4-11.1,4-13.1c0.5-1.6,1.7-3.8,2.3-4.2h-6.2c0,0,0.8,1-0.2,4c0,0-1.9,6.2-4,13.3h-8.3
		l-0.6,1.6h8.4c-2.3,7.7-4.1,14.1-4.1,14.1c-2.2-5.9-5.4-10.9-8.9-15.4c-3.6-5.1-12.2-13.6-12.2-13.6c-3.5-5-7.8-13.3-10.3-17.3
		c-1.1-1.7-4.5-9-4.8-10.8c-0.5-1.1-4-11.2-4.1-11.4c-0.2-0.5-0.3-0.9-0.5-1.3c-0.3-0.9-0.6-1.8-0.8-2.8c0,0.3,0,1.4,0.2,2
		c0.2,0.7,5.7,18.3,5.9,19c-1.2-0.9-1.8-2.2-2.8-3.2c-1.5-1.6-7.2-11.5-10.2-16.1c-0.8-1.3-1.5-2.9-2.2-4.5c0.1,0.6,0.3,1.5,0.7,2.5
		c0,0,2.1,4.1,2.1,4.1c2.2,4.1,5.4,9.8,5.8,10.4C79,25.5,68.7,12,63.1,5c-1.4-1.8-1.9-2.6-2.9-5c0.1,0.6,0.3,2,1.4,3.4
		c0.8,1.2,2.3,3.1,2.3,3.1C70.3,15,81.3,30,81.6,30.9c-0.8-0.6-10.1-11.6-14.3-16.4c0,0-2-2.4-3-3.9c0.1,0.4,0.5,1,1,1.8l0,0
		c0.9,1.7,15.1,18.2,15.9,19.9c-0.7-0.2-4.5-4.5-5.6-5.7C70.5,20.9,53.9,3,53.6,2.7c-0.7-0.8-1.5-1.7-2.2-2.7
		c0.3,0.8,1.5,2.5,3.1,4.3c0,0,16,17.7,17.4,20.2c-3.6-0.6-18.1-12-18.1-12c-3-2.4-7.9-6.5-7.9-6.5c-1-0.9-2.1-1.8-3-2.4
		c-0.9-0.7-2.4-1.4-2.9-1.6C41.6,3,43,4.1,44.3,5.2c5.6,5.6,16.4,15.2,20.8,21.7c-6.4-5.1-16.2-10-20.2-10.8
		c-3.5-0.7-7.2-0.6-7.2-0.6c10.1,1.3,12.1,3.3,12.1,3.3c9.1,4.7,15.9,10.2,18.8,13.8c-6-4.2-14.2-7.7-17.7-8.3
		c-3.6-0.6-7.5-0.4-7.5-0.4c13.6,0,24.5,10,27.7,13.1c-6.6-3.5-15-6.5-18.5-6.7c-3.7-0.2-7.6,0.4-7.6,0.4C55.7,30.6,58,32.4,58,32.4
		c6,2.1,11.1,4.8,14.6,7.2c-4.3-1.8-10.2-2-14.5-1.3c-3.5,0.6-6.7,1.9-6.7,1.9c9.6-2.4,12.5-1.4,12.5-1.4c9,1.1,10.6,3.6,11,4.2
		c-2.8-0.4-5,0.4-7.6,0.8c-3.6,0.6-7,2.4-7,2.4c10-2.5,12.8-1.7,12.8-1.7c5.4-0.3,19.2,7.1,25.9,10.8c11.2,9,19.9,23.7,21.2,32.8
		l-5,15c-2.5,9.1,2.2,10.6,6.8,5.2c4.4-6,3.6-12.7,1.2-18.1c1.1-3.6,3.7-12.6,6.1-20.5h8.3l0.6-1.6H129.8z M78.8,32.3
		c2.1-0.6,6.5,8.4,6,8.5C84.3,40.8,76.8,32.8,78.8,32.3 M73.3,32.4c-2.8-1.9-4-3.4-3.4-4.5c0.2-0.3,0.4-0.5,0.7-0.6
		c0.4-0.1,1,0.1,1.8,0.6c2.5,1.8,5.4,6.3,5.9,7.2C77.5,35.1,75.2,33.7,73.3,32.4 M75,36.1c0.3-2.1,8.9,4.5,8.9,5.1
		C83.9,41.7,74.7,38.4,75,36.1 M79.1,42.5c0.2-2.6,9.5,2.3,9.5,3.4C88.6,46.6,78.9,45.1,79.1,42.5 M90,45c-1.1,0.1-7-8.8-4.6-9.3
		C87.8,35.1,90.5,44.9,90,45 M119.6,107.1c-1.4,0.8-1.2-0.9-0.8-2.3c0,0,1.7-5.7,3.7-12.6C124.5,100.1,121.8,106,119.6,107.1"/>
</g>
</svg>
