<?xml version="1.0" encoding="utf-8"?>
<!-- Generator: Adobe Illustrator 22.1.0, SVG Export Plug-In . SVG Version: 6.00 Build 0)  -->
<svg version="1.1" id="Layer_1" xmlns="http://www.w3.org/2000/svg" xmlns:xlink="http://www.w3.org/1999/xlink" x="0px" y="0px"
	 viewBox="0 0 272 65" style="enable-background:new 0 0 272 65;" xml:space="preserve">
<g>
	<g>
		<path d="M61,29.8c0,0-0.7,0.6-1.2,1.4c-0.9,1.4-2.6,3.9-4.2,6.5c0.3,3.7,0.7,7.5,0.7,7.5c0.2,0.9,0.5,1.5,0.6,1.6h-2.5
			c0-0.1,0.4-1.1,0.4-1.7c-0.1-1.3-0.2-3.3-0.4-5.5c-2,3-5.2,7-7.1,8.9c-0.1,0.1,2.6-3.5,4.7-6.6c0.9-1.3,1.8-2.5,2.3-3.3
			c-0.3-2.8-0.5-5.8-0.7-7.4c-0.1-0.7-0.4-1.4-0.4-1.4h2.1c0,0-0.3,0.6-0.2,1.4c0.1,1.2,0.3,3.3,0.5,5.5c1.4-2.2,2.7-4.2,3.5-5.4
			c0.5-0.7,0.7-1.4,0.7-1.4H61z"/>
		<path d="M29.8,49.5l4.8-15h-3.5c0.1-0.2,0.1-0.4,0.2-0.6h3.5l0.2-0.5c1.6-5.2,4.8-12.1,11-10c-6.8-0.8-8.5,7.6-9.1,9.6
			c0,0-0.1,0.4-0.3,1h3.4l-0.2,0.6h-3.4c-1.4,4.2-4.7,14.6-4.7,14.6c-1.6,5.2-6.8,12.4-15.7,12.9C25.7,60.8,29.3,51,29.8,49.5
			L29.8,49.5z"/>
		<path d="M79.3,29.8c0,0-0.4,0.7-0.6,1.7l-3.6,12c-1.6,4.6,2.3-1.2,2.7-2.1c-2.6,5.8-5.7,7.2-4.5,2.4c-3,3.8-6.1,4.1-6-0.7
			c0.2-4.5,7.8-16.6,10-12.2c0.3-0.8,0.2-1.1,0.2-1.1H79.3z M72.5,43.8c1.7-1.8,4.1-10.5,4-11.8c-0.2-5.4-6.8,5.8-7.5,10.9
			C68.4,47.4,70.5,46,72.5,43.8"/>
		<path d="M84.9,32.7L83,39.1c0.5,0.9,1.2,1.8,2.1,2.8c-0.5-0.3-1.4-1.2-2.2-2.4l-1.7,5.6C81,46,81,46.7,81,46.7h-2.1
			c0.1-0.1,0.6-1.1,0.7-1.6c0.5-1.8,1.4-4.7,2.2-7.4c-0.9-2.1-1.2-4.7,0.5-6.9C84,28.7,85.8,29.2,84.9,32.7 M83.2,31.2
			c-0.8,0.4-1.8,2.7-1.1,5.7c0.8-2.6,1.4-4.8,1.4-4.8C83.7,31.5,83.7,30.9,83.2,31.2 M86.1,25.4c-0.7,0-1.2-0.5-1.2-1.2
			c0-0.7,0.5-1.2,1.2-1.2c0.7,0,1.2,0.5,1.2,1.2c0,0.7-0.7,1.2-1.3,1.2"/>
		<path d="M86.8,44l2-6.6c-0.5-0.9-1.2-1.9-2.1-2.8c0.5,0.3,1.5,1.3,2.2,2.4l4.8-15.8c0.3-1.2,0-1.6,0-1.6h2.4
			c-0.2,0.1-0.6,0.8-0.9,1.6c-0.6,1.8-4.5,14.9-5.3,17.6c1,2.2,1.3,4.8-0.4,7.1C87.7,48.2,85.9,47.6,86.8,44 M88.6,45.6
			c0.8-0.4,1.9-2.8,1.2-5.9c-0.8,2.7-1.5,5-1.5,5C88.1,45.3,88,45.9,88.6,45.6"/>
		<path d="M41.6,46.8c-2.2-0.6-2.3-4.1-1-7.6c1.4-3.6,3.5-10.4,7.6-9.5c3.4,0.8,1.3,6.8,0.1,10.6C46.8,45.4,44.6,47.5,41.6,46.8
			 M46.7,39.8c1.4-5.1,3.5-9,1.2-9.6c-2.2-0.6-4.5,5.8-5.7,9.6c-1.1,3.2-1.5,6-0.2,6.6C43.8,47.1,45.7,43.6,46.7,39.8"/>
		<path d="M67,29.8c0.7-2.4,1.4-4.4,1.6-5.2c0.2-0.6,0.7-1.5,0.9-1.7H67c0,0,0.3,0.4-0.1,1.6c0,0-0.7,2.4-1.6,5.3h-3.3l-0.2,0.6h3.3
			c-0.9,3-1.6,5.6-1.6,5.6c-0.9-2.3-2.1-4.3-3.5-6.1c-1.4-2-4.8-5.4-4.8-5.4c-1.4-2-3.1-5.2-4.1-6.8c-0.4-0.7-1.8-3.5-1.9-4.3
			C49.1,13,47.7,9,47.7,8.9c-0.1-0.2-0.1-0.4-0.2-0.5c-0.1-0.3-0.2-0.7-0.3-1.1c0,0.1,0,0.5,0.1,0.8c0.1,0.3,2.3,7.2,2.3,7.5
			c-0.5-0.3-0.7-0.9-1.1-1.3c-0.6-0.6-2.8-4.5-4-6.3c-0.3-0.5-0.6-1.1-0.9-1.8c0,0.2,0.1,0.6,0.3,1c0,0,0.8,1.6,0.8,1.6
			c0.9,1.6,2.1,3.9,2.3,4.1c-0.1,0.1-4.1-5.2-6.3-8c-0.6-0.7-0.8-1-1.1-2c0,0.3,0.1,0.8,0.5,1.4C40.4,4.8,41,5.5,41,5.5
			c2.5,3.3,6.9,9.3,7,9.6c-0.3-0.2-4-4.6-5.6-6.5c0,0-0.8-1-1.2-1.5c0.1,0.2,0.2,0.4,0.4,0.7l0,0c0.4,0.7,6,7.2,6.3,7.8
			c-0.3-0.1-1.8-1.8-2.2-2.3c-2-2.2-8.6-9.3-8.7-9.4c-0.3-0.3-0.6-0.7-0.9-1.1c0.1,0.3,0.6,1,1.2,1.7c0,0,6.3,7,6.8,8
			c-1.4-0.2-7.1-4.7-7.1-4.7c-1.2-0.9-3.1-2.6-3.1-2.6c-0.4-0.4-0.8-0.7-1.2-0.9c-0.4-0.3-0.9-0.6-1.2-0.6c0.7,0.4,1.2,0.9,1.7,1.3
			c2.2,2.2,6.5,6,8.2,8.6c-2.5-2-6.4-3.9-8-4.3c-1.4-0.3-2.8-0.3-2.8-0.3c4,0.5,4.8,1.3,4.8,1.3c3.6,1.9,6.3,4,7.4,5.4
			c-2.4-1.7-5.6-3-7-3.3c-1.4-0.2-3-0.1-3-0.1c5.4,0,9.7,4,10.9,5.2c-2.6-1.4-5.9-2.6-7.3-2.6c-1.5-0.1-3,0.2-3,0.2
			c4.2-0.1,5.1,0.6,5.1,0.6c2.4,0.8,4.4,1.9,5.8,2.9c-1.7-0.7-4-0.8-5.7-0.5c-1.4,0.2-2.6,0.8-2.6,0.8c3.8-0.9,4.9-0.6,4.9-0.6
			c3.6,0.4,4.2,1.4,4.3,1.7c-1.1-0.1-2,0.1-3,0.3c-1.4,0.2-2.8,0.9-2.8,0.9c3.9-1,5.1-0.7,5.1-0.7c2.1-0.1,7.6,2.8,10.2,4.3
			c4.4,3.5,7.9,9.3,8.4,12.9l-2,5.9c-1,3.6,0.9,4.2,2.7,2c1.7-2.4,1.4-5,0.5-7.2c0.4-1.4,1.5-5,2.4-8.1h3.3l0.2-0.6H67z M46.9,15.7
			c0.8-0.2,2.6,3.3,2.4,3.3C49.1,19,46.1,15.9,46.9,15.7 M44.7,15.7c-1.1-0.8-1.6-1.4-1.3-1.8c0.1-0.1,0.2-0.2,0.3-0.2
			c0.2,0,0.4,0,0.7,0.2c1,0.7,2.1,2.5,2.3,2.8C46.4,16.8,45.5,16.2,44.7,15.7 M45.4,17.2c0.1-0.8,3.5,1.8,3.5,2
			C48.9,19.4,45.3,18.1,45.4,17.2 M47,19.7c0.1-1,3.7,0.9,3.7,1.4C50.8,21.3,46.9,20.7,47,19.7 M51.3,20.7c-0.4,0.1-2.8-3.5-1.8-3.7
			C50.4,16.8,51.5,20.6,51.3,20.7 M63,45.2c-0.5,0.3-0.5-0.3-0.3-0.9c0,0,0.7-2.2,1.5-5C64.9,42.4,63.8,44.7,63,45.2"/>
	</g>
	<g>
		<path d="M114.4,41.9c0,0.1-0.1,0.1-0.1,0.1c-0.1,0-0.1,0-0.2-0.1c-0.1-0.2-0.2-0.4-0.3-0.4c0,0-0.1,0-0.1,0
			c-0.1,0-1.2,0.9-2.9,0.9c-2.5,0-4.8-1.6-4.8-4.7c0-2.2,1.4-5.1,4.9-5.1c1.4,0,2.6,0.7,2.7,0.7c0.2,0,0.3-0.2,0.3-0.3
			c0-0.1,0-0.2,0.2-0.2c0.1,0,0.2,0.1,0.2,0.3l0.1,2v0.1c0,0.2,0,0.3-0.1,0.3c-0.1,0-0.6-2.7-3.1-2.7c-1.4,0-3.3,0.9-3.3,4.8
			c0,3.1,1.6,4.4,3.3,4.4c1.5,0,2.3-0.5,3.2-3c0,0,0.1-0.1,0.1-0.1c0,0,0.1,0,0.1,0.1V41.9z"/>
		<path d="M121.9,38.9h-3.5l-0.6,1.5c-0.1,0.4-0.2,0.6-0.2,0.8c0,0.2,0,0.6,0.7,0.7c0.2,0,0.4,0.1,0.4,0.2c0,0,0,0.2-0.3,0.2h-0.1
			c-0.2,0-1-0.1-1.2-0.1c0,0-0.2,0-0.5,0c-0.3,0-0.5,0-0.6,0c-0.3,0-0.5,0-0.5-0.2c0,0,0.1-0.1,0.3-0.2c0.3,0,0.8-0.2,1.1-0.8
			c0.1-0.2,0.2-0.5,0.4-0.8l3.1-7.4c0.1-0.2,0.2-0.2,0.2-0.2c0.1,0,0.2,0.1,0.3,0.3l3.1,7.7c0.3,0.6,0.5,1.1,1.3,1.2
			c0.2,0,0.3,0.1,0.3,0.2c0,0.1-0.1,0.1-0.4,0.1c-0.8,0-1.4,0-1.7,0c-0.8,0-1.5,0.1-1.5,0.1c-0.3,0-0.4,0-0.5-0.2c0,0,0,0,0,0
			c0-0.1,0.1-0.1,0.3-0.1c0.7-0.1,1-0.3,0.6-1.4L121.9,38.9z M120.2,34.4l-1.7,4h3.2L120.2,34.4z"/>
		<path d="M129.9,40.7c0,0.3,0,0.5,0.1,0.7c0,0.2,0.1,0.3,0.2,0.3c0.1,0.1,0.3,0.1,0.5,0.2c0.2,0,0.4,0.1,0.5,0.1
			c0.1,0,0.1,0.1,0.1,0.1c0,0.1,0,0.2-0.4,0.2c-0.3,0-0.9-0.1-1.7-0.1c-0.4,0-0.8,0-1.9,0h-0.1c0,0,0,0-0.1,0
			c-0.2,0-0.3-0.1-0.3-0.1c0-0.1,0.1-0.2,0.2-0.2c1-0.1,1.3-0.3,1.3-1.3v-7c0-0.2,0-0.4-0.8-0.4c-0.1,0,0.1,0-1,0
			c-1.6,0-1.9,0.3-2.1,1.2c-0.1,0.3-0.1,0.5-0.2,0.5c-0.1,0-0.1-0.1-0.1-0.2v-1.6c0-0.2,0.1-0.3,0.4-0.3h8.9c0.2,0,0.4,0,0.4,0.3
			v1.6c0,0.1-0.1,0.2-0.1,0.2c-0.1,0-0.1-0.1-0.1-0.1c-0.2-1.2-0.3-1.6-2.3-1.6c-0.4,0-0.7,0-1,0c-0.2,0-0.6,0-0.6,0.4V40.7z"/>
		<path d="M140.7,35.9c0,0.2-0.1,1.5-0.1,1.4c0,0.1,0.1,1.2,0.1,1.5c0,0.3,0,0.4-0.1,0.4c-0.1,0-0.2-0.2-0.3-0.5
			c-0.2-0.7-0.4-1.1-2.2-1.1v2.3c0,1.4,0,2,2.2,2c1.3,0,2.1-0.4,2.4-1.4c0-0.1,0.1-0.4,0.2-0.4c0,0,0,0,0,0c0.1,0,0.1,0.3,0.1,0.6
			c0,0.3,0,0.6,0,0.8c0,0.5,0,0.8-0.3,0.8c-0.2,0-2.4-0.1-3.6-0.1c-3.2,0-3.3,0.1-3.4,0.1c0,0-0.3,0-0.3-0.2c0-0.1,0-0.1,0.1-0.1
			c0.2-0.1,1.2,0.3,1.2-1.3v-6.3c0-0.7,0-1.1-0.9-1.2c-0.1,0-0.4,0-0.4-0.2c0-0.1,0-0.1,0.4-0.1c0.1,0,0.5,0,1.1,0.1
			c1.6,0,3.4,0,4-0.1h0.2h0.4c0.7,0,1,0.1,1,0.3c0,0.3-0.1,0.5-0.1,0.8c0,0,0.1,0.5,0.1,0.7c0,0.2-0.2,0.3-0.2,0.2
			c-0.1,0-0.1-0.4-0.2-0.5c0-0.2-0.1-0.3-0.1-0.3c0-0.1-0.1-0.2-0.1-0.2c-0.4-0.4-1-0.6-2-0.6c-1.6,0-1.6,0-1.6,0.7v3.2
			c0.8,0,2,0,2.2-1.3c0-0.2,0.1-0.5,0.2-0.5C140.6,35.4,140.7,35.3,140.7,35.9"/>
		<path d="M147.2,40.7c0,1.1,0.1,1.1,1.3,1.3c0.1,0,0.1,0.1,0.1,0.2c0,0.1-0.1,0.1-0.4,0.1c0.2,0-1.6-0.1-1.7-0.1
			c-0.2,0-1.3,0.1-1.9,0.1c-0.1,0-0.2,0-0.2-0.1c0-0.1,0.1-0.1,0.2-0.1c0.6-0.1,1.1-0.1,1.1-1.3v-6.3c0-0.4-0.1-0.7-0.2-0.9
			c-0.1-0.2-0.3-0.3-0.7-0.3c-0.4,0-0.5-0.1-0.5-0.2c0-0.1,0.2-0.1,0.5-0.1c0.2,0,0.7,0,1.4,0c0.1,0,0.5,0,0.8,0c0.1,0,0.3,0,0.6,0
			c0.4,0,0.6,0,0.7,0c2.3,0,3.4,0.7,3.4,2.4c0,1.2-0.6,2.1-2.6,2.4l3,3.5c0.4,0.4,0.7,0.6,1.1,0.7c0.2,0,0.3,0.1,0.3,0.2
			c0,0.1,0,0.1-0.4,0.1h-0.1c-0.2,0-0.4,0-0.9,0c-0.5,0-0.5,0-0.6,0c-0.3,0-0.5-0.1-0.6-0.2l-3-3.7c-0.1-0.1-0.2-0.2-0.3-0.2
			c-0.1-0.1-0.2-0.1-0.4-0.1c-0.2,0-0.3,0.1-0.3,0.3V40.7z M147.2,37.3c0,0.2,0,0.3,0.1,0.3c0,0,0,0.1,0.4,0.1
			c2.3,0,2.6-1.1,2.6-2.2c0-1.4-0.6-2.2-2.2-2.3h-0.2c-0.2,0-0.4,0-0.5,0.1c-0.1,0.1-0.2,0.2-0.2,0.4V37.3z"/>
		<path d="M158.4,32.9c0.5,0,0.6,0,0.6,0.2c0,0.1-0.1,0.1-0.3,0.1c-0.7,0.1-1.1,0.2-1.1,1.2v6.3c0,1.1,0.2,1.1,1.4,1.3
			c0.1,0,0.1,0.1,0.1,0.1c0,0.1,0,0.1-0.4,0.1c0,0-1.7-0.1-1.8-0.1c0,0-1.9,0.1-1.8,0.1c-0.1,0-0.4,0-0.4-0.1c0-0.1,0.1-0.2,0.3-0.2
			c0.9-0.1,1.2-0.4,1.2-1.3v-6.3c0-1-0.4-1.1-1.1-1.2c-0.2,0-0.3,0-0.3-0.1c0-0.1,0.1-0.1,0.6-0.1c0.7,0,1.4,0.1,1.5,0.1
			C157.1,33,157.7,32.9,158.4,32.9"/>
		<path d="M169.3,32.9c0.5,0,1.1,0,1.2,0c0,0.1,0.1,0.1,0.1,0.2c0,0.1,0,0.1-0.1,0.1c-0.2,0.1-1.2-0.1-1.2,1.2v0.2V42
			c0,0.3-0.1,0.4-0.2,0.4c-0.2,0-0.3-0.1-0.5-0.3l-6.2-7.7v6c0,0.7,0.1,1.2,0.5,1.3c0.1,0.1,0.3,0.1,0.4,0.1c0.2,0,0.4,0,0.4,0.2
			c0,0.1,0.1,0.2-0.5,0.2c0,0-0.7-0.1-1.1-0.1c-0.1,0-0.3,0-0.5,0c-0.2,0-0.4,0-0.5,0c-0.2,0-0.3,0-0.4,0c-0.1,0-0.2-0.1-0.2-0.2
			c0,0,0-0.1,0.1-0.1c0,0,0.6-0.1,1-0.4c0.1-0.1,0.2-0.3,0.2-0.4c0-0.2,0.1-0.3,0.1-0.6v-0.2V34c-0.2-0.3-0.5-0.7-1.1-0.7
			c-0.3-0.1-0.4-0.1-0.4-0.2c0-0.1,0.1-0.1,0.5-0.1c0.2,0,0.8,0,1.1,0c0,0,0.1,0,0.3,0c0.2,0,0.6-0.1,0.8,0.2l5.7,7.1v-5.7
			c0-1.1-0.3-1.4-1.1-1.4c-0.5-0.1-0.5-0.2-0.5-0.3c0,0,0.1-0.1,0.5-0.1H169.3z"/>
		<path d="M179.9,38.4c0.4-0.1,0.8-0.1,1.1-0.1c0.1,0,0.4,0,0.4,0.1c0,0-0.1,0.1-0.4,0.2c-0.4,0.2-0.7,0.2-0.7,1.3
			c0,0.3,0,0.7,0.1,1.3c-0.3,0-0.6-0.1-1.9,0.7c-0.9,0.4-1.6,0.6-2.3,0.6c-3.3,0-4.6-2.5-4.6-4.7c0-2,1.1-5.1,4.9-5.1
			c1.5,0,2.5,0.7,2.8,0.7c0.1,0,0.3-0.4,0.4-0.4c0.1,0,0.2,0.1,0.2,0.4l-0.1,2.1c0,0.1-0.1,0.2-0.2,0.2c-0.1,0,0,0.1-0.3-0.6
			c-0.5-1.6-1.7-2-2.7-2c-2.4,0-3.3,2-3.3,4.8c0,2.5,1,4.3,3.2,4.3c1,0,2.3-0.2,2.3-2.1c0-0.2,0-0.3,0-0.3c0-0.3,0-0.9-0.7-1
			c-0.1,0-0.5-0.1-0.5-0.2c0,0,0-0.1,0.4-0.1C178,38.3,178.2,38.4,179.9,38.4"/>
		<path d="M186.8,42.2c-1.2-0.8-1.3-2.8,1.5-4.4c-0.5-0.8-1-1.8-1-2.7c0-1.1,0.8-2.4,2.2-2.4c0.9,0,1.8,0.8,1.8,1.9
			c0,1-0.6,1.8-1.9,2.7c1.1,1.5,1.6,2,2,2.4c0.5-0.6,1.4-3.1,2.8-3.1c0.6,0,1,0.4,1,0.9c0,0.3-0.2,0.8-0.8,0.8
			c-0.5-0.1-0.5-1.1-0.7-1.1c-0.4,0-2.1,2.8-2,2.9c0.9,1.1,2.2,2.1,3.4,1.5c0.5-0.2-1,0.8-1.8,0.8c-0.9,0-1.7-0.6-2.4-1.3
			C190.1,42,188.3,43,186.8,42.2 M188.5,38.1c-1.6,1.1-1.6,2.8-0.5,3.5c0.7,0.4,1.7,0.3,2.7-0.8C189.8,40,189.1,39.1,188.5,38.1
			 M190.5,34.7c0-0.7-0.2-1.7-1.1-1.7c-0.1,0-0.1,0-0.1,0c-0.9,0.1-1.2,1.3-1.1,1.7c0,0.3,0.1,0.7,1,2c0.1,0.1,0.1,0.2,0.1,0.2
			C189.9,36.6,190.5,35.9,190.5,34.7"/>
		<path d="M204.7,35.9c0,0.2-0.1,1.5-0.1,1.4c0,0.1,0.1,1.2,0.1,1.5c0,0.3,0,0.4-0.1,0.4c-0.1,0-0.2-0.2-0.2-0.5
			c-0.2-0.7-0.4-1.1-2.2-1.1v2.3c0,1.4,0,2,2.2,2c1.3,0,2.1-0.4,2.4-1.4c0-0.1,0.1-0.4,0.2-0.4c0,0,0,0,0,0c0.1,0,0.1,0.3,0.1,0.6
			c0,0.3,0,0.6,0,0.8c0,0.5,0,0.8-0.3,0.8c-0.2,0-2.4-0.1-3.6-0.1c-3.3,0-3.3,0.1-3.4,0.1c0,0-0.3,0-0.3-0.2c0-0.1,0-0.1,0.1-0.1
			c0.2-0.1,1.2,0.3,1.2-1.3v-6.3c0-0.7,0-1.1-0.9-1.2c-0.1,0-0.4,0-0.4-0.2c0-0.1,0-0.1,0.4-0.1c0.1,0,0.5,0,1.1,0.1
			c1.6,0,3.4,0,4-0.1h0.2h0.4c0.7,0,1,0.1,1,0.3c0,0.3-0.1,0.5-0.1,0.8c0,0,0.1,0.5,0.1,0.7c0,0.2-0.2,0.3-0.2,0.2
			c-0.1,0-0.1-0.4-0.2-0.5c0-0.2-0.1-0.3-0.1-0.3c0-0.1-0.1-0.2-0.1-0.2c-0.4-0.4-1-0.6-2-0.6c-1.6,0-1.6,0-1.6,0.7v3.2
			c0.8,0,2,0,2.2-1.3c0-0.2,0.1-0.5,0.2-0.5C204.6,35.4,204.7,35.3,204.7,35.9"/>
		<path d="M213.2,40.8l1.4-3.4c0.1-0.3,0.2-0.6,0.4-0.9c0.2-0.4,0.3-0.7,0.4-1c0.1-0.3,0.2-0.6,0.3-0.9c0.1-0.4,0.2-0.6,0.2-0.8
			c0-0.4-0.1-0.5-0.9-0.6c0,0-0.2,0-0.2-0.1c0-0.1,0.1-0.2,0.3-0.2c0.1,0,0.3,0,0.4,0c0.1,0,0.1,0,0.1,0c0.2,0,0.5,0,0.7,0
			c0.5,0,1.6,0,1.4,0c0.2,0,0.3,0.1,0.3,0.2c-0.1,0.1-0.6,0.2-0.6,0.2c-0.2,0.1-0.5,0.3-0.6,0.6c-0.1,0.2-0.2,0.3-0.3,0.5
			c0,0.1-0.1,0.2-0.1,0.3c0,0.1-0.1,0.2-0.1,0.2l-2.4,5.8c0,0,0,0.1-0.1,0.2c0,0.1-0.1,0.2-0.1,0.2c-0.1,0.2-0.2,0.4-0.2,0.5
			c-0.1,0.2-0.2,0.3-0.3,0.5c-0.1,0.1-0.2,0.2-0.3,0.3c-0.1,0-0.1,0-0.2-0.1c0-0.1-0.1-0.1-0.2-0.3c0-0.1-0.1-0.2-0.1-0.2l-2.7-6.9
			c0-0.1-0.1-0.2-0.1-0.2c0-0.1,0-0.1-0.1-0.2c0,0,0-0.1-0.1-0.2c-0.1-0.3-0.2-0.5-0.3-0.7c-0.1-0.2-0.2-0.3-0.4-0.3
			c0,0-0.2,0-0.4-0.1c-0.2,0-0.3-0.1-0.4-0.1c0,0-0.1-0.1-0.1-0.1c0-0.1,0.1-0.1,0.2-0.2c0,0,0.1,0,0.2,0c0.1,0,0.2,0,0.2,0
			c0.3,0.1,0.7,0.1,1.1,0.1c0.3,0,0.6,0,0.9,0c0,0,0,0,0.1,0h0.1c0.1,0,0.2,0,0.3,0c0.1,0,0.1,0,0.2,0h0.1c0.1,0,0.2,0,0.4,0
			c0.2,0,0.3,0,0.3,0c0,0,0,0.1,0,0.1c0,0,0,0.1,0,0.1c0,0-0.1,0.1-0.1,0.1c-0.1,0-0.2,0-0.3,0c-0.2,0-0.3,0-0.4,0.1
			c-0.1,0-0.2,0.1-0.3,0.2c0,0.1-0.1,0.2-0.1,0.3c0,0.1,0,0.3,0.1,0.5c0,0.2,0.1,0.4,0.2,0.7c0.1,0.2,0.1,0.4,0.2,0.4L213.2,40.8z"
			/>
		<path d="M224.1,35.9c0,0.2-0.1,1.5-0.1,1.4c0,0.1,0.1,1.2,0.1,1.5c0,0.3,0,0.4-0.1,0.4c-0.1,0-0.2-0.2-0.3-0.5
			c-0.2-0.7-0.4-1.1-2.2-1.1v2.3c0,1.4,0,2,2.2,2c1.3,0,2.1-0.4,2.4-1.4c0-0.1,0.1-0.4,0.2-0.4c0,0,0,0,0,0c0.1,0,0.1,0.3,0.1,0.6
			c0,0.3,0,0.6,0,0.8c0,0.5,0,0.8-0.3,0.8c-0.2,0-2.4-0.1-3.6-0.1c-3.2,0-3.3,0.1-3.4,0.1c0,0-0.3,0-0.3-0.2c0-0.1,0-0.1,0.1-0.1
			c0.2-0.1,1.2,0.3,1.2-1.3v-6.3c0-0.7,0-1.1-0.9-1.2c-0.1,0-0.4,0-0.4-0.2c0-0.1,0-0.1,0.4-0.1c0.1,0,0.5,0,1.1,0.1
			c1.6,0,3.4,0,4-0.1h0.2h0.4c0.7,0,1,0.1,1,0.3c0,0.3-0.1,0.5-0.1,0.8c0,0,0.1,0.5,0.1,0.7c0,0.2-0.2,0.3-0.2,0.2
			c-0.1,0-0.1-0.4-0.2-0.5c0-0.2-0.1-0.3-0.1-0.3c0-0.1-0.1-0.2-0.1-0.2c-0.4-0.4-1-0.6-2-0.6c-1.6,0-1.6,0-1.6,0.7v3.2
			c0.8,0,2,0,2.2-1.3c0-0.2,0.1-0.5,0.3-0.5C224,35.4,224.1,35.3,224.1,35.9"/>
		<path d="M236.3,32.9c0.5,0,1.1,0,1.2,0c0,0.1,0.1,0.1,0.1,0.2c0,0.1,0,0.1-0.1,0.1c-0.2,0.1-1.2-0.1-1.2,1.2v0.2V42
			c0,0.3-0.1,0.4-0.2,0.4c-0.2,0-0.3-0.1-0.5-0.3l-6.2-7.7v6c0,0.7,0.1,1.2,0.5,1.3c0.1,0.1,0.3,0.1,0.4,0.1c0.2,0,0.4,0,0.4,0.2
			c0,0.1,0.1,0.2-0.5,0.2c0,0-0.7-0.1-1.1-0.1c-0.1,0-0.3,0-0.5,0c-0.2,0-0.4,0-0.5,0c-0.2,0-0.3,0-0.4,0c-0.1,0-0.2-0.1-0.2-0.2
			c0,0,0-0.1,0.1-0.1c0,0,0.6-0.1,1-0.4c0.1-0.1,0.2-0.3,0.2-0.4c0-0.2,0.1-0.3,0.1-0.6v-0.2V34c-0.2-0.3-0.5-0.7-1.1-0.7
			c-0.3-0.1-0.4-0.1-0.4-0.2c0-0.1,0.1-0.1,0.5-0.1c0.2,0,0.8,0,1.1,0c0,0,0.1,0,0.3,0c0.2,0,0.6-0.1,0.8,0.2l5.7,7.1v-5.7
			c0-1.1-0.3-1.4-1.1-1.4c-0.5-0.1-0.5-0.2-0.5-0.3c0,0,0.1-0.1,0.5-0.1H236.3z"/>
		<path d="M244.1,40.7c0,0.3,0,0.5,0.1,0.7c0,0.2,0.1,0.3,0.2,0.3c0.1,0.1,0.3,0.1,0.5,0.2c0.2,0,0.4,0.1,0.5,0.1
			c0.1,0,0.1,0.1,0.1,0.1c0,0.1,0,0.2-0.4,0.2c-0.3,0-0.9-0.1-1.7-0.1c-0.4,0-0.8,0-1.9,0h-0.1c0,0,0,0-0.1,0
			c-0.2,0-0.3-0.1-0.3-0.1c0-0.1,0.1-0.2,0.2-0.2c1-0.1,1.3-0.3,1.3-1.3v-7c0-0.2,0-0.4-0.8-0.4c-0.1,0,0.1,0-1,0
			c-1.6,0-1.9,0.3-2.1,1.2c-0.1,0.3-0.1,0.5-0.2,0.5c-0.1,0-0.1-0.1-0.1-0.2v-1.6c0-0.2,0.1-0.3,0.4-0.3h8.9c0.2,0,0.4,0,0.4,0.3
			v1.6c0,0.1-0.1,0.2-0.1,0.2c-0.1,0-0.1-0.1-0.1-0.1c-0.2-1.2-0.4-1.6-2.3-1.6c-0.3,0-0.7,0-1,0c-0.2,0-0.6,0-0.6,0.4V40.7z"/>
		<path d="M250.1,40c0.5,1.4,1,2.1,2.6,2.1c1.2,0,1.9-0.7,1.9-1.9c0-0.7-0.1-1.4-2.2-2.3c-0.8-0.3-2.5-1-2.5-2.8
			c0-1.4,1.1-2.5,2.8-2.5c1,0,1.7,0.5,1.7,0.5c0.1,0.1,0.2,0.1,0.3,0.1c0.1,0,0.2-0.1,0.2-0.3c0.1-0.2,0.2-0.2,0.2-0.2
			c0.1,0,0.2,0.1,0.2,0.6c0,0.1,0,0.1,0,0.2v0.9c0,0.2,0.1,0.8-0.1,0.8c-0.1,0-0.2-0.2-0.2-0.4c-0.4-1.1-0.8-1.8-2.2-1.8
			c-0.8,0-1.7,0.4-1.8,1.4c0,0.7,0.3,1.3,2,2.1c1.6,0.6,2.9,1.4,2.9,3.2c0,1.9-1.8,2.8-3.3,2.8c-1.2,0-2.1-0.6-2.3-0.7
			c0,0-0.1,0-0.1,0c-0.1,0-0.2,0.1-0.3,0.3c0,0.1-0.1,0.1-0.2,0.1c-0.1-0.1,0-0.4,0-0.5c0-0.1,0.1-0.2,0-1.2c0-0.4,0-0.6,0-0.6v-0.1
			v-0.1c0-0.1,0-0.2,0.1-0.2C249.9,39.5,250,39.6,250.1,40"/>
	</g>
</g>
</svg>
